# xmcd CD database file
#
# Track frame offsets:
#	150
#	13897
#	27112
#	41338
#	50437
#	62126
#	75938
#	89674
#	102702
#	118323
#	131558
#	144634
#	158225
#	174316
#	190065
#	205824
#	219336
#	236285
#	249612
#	261342
#	276657
#	289147
#
# Disc length: 4076 seconds
#
# Revision: 0
# Processed by: cddbd v1.5PL3 Copyright (c) Steve Scherf et al.
# Submitted via: CDex 1.40Release
#
DISCID=480fea16
DTITLE=Billy Holiday - Blues Legends
DYEAR=1900
DGENRE=Blues
TTITLE0=You go to my head
TTITLE1=East of the sun
TTITLE2=Easy to love
TTITLE3=These Foolish things
TTITLE4=Blue moon
TTITLE5=Solitude
TTITLE6=Moonglow
TTITLE7=Everything i have is yours
TTITLE8=Love for sale
TTITLE9=Remember
TTITLE10=Tenderly
TTITLE11=If the moon turns green
TTITLE12=Autumn in New York
TTITLE13=Crazy he calls me
TTITLE14=my man
TTITLE15=God Bless the child
TTITLE16=Blue turning grey over you
TTITLE17=Be fair with me baby
TTITLE18=Rocky mountain blues
TTITLE19=Detour ahead
TTITLE20=I only have eyes for you
TTITLE21=You turned the tables on me
EXTD=ID3G: 0
EXTT0=
EXTT1=
EXTT2=
EXTT3=
EXTT4=
EXTT5=
EXTT6=
EXTT7=
EXTT8=
EXTT9=
EXTT10=
EXTT11=
EXTT12=
EXTT13=
EXTT14=
EXTT15=
EXTT16=
EXTT17=
EXTT18=
EXTT19=
EXTT20=
EXTT21=
PLAYORDER=
